<svg xmlns="http://www.w3.org/2000/svg" viewBox="0 0 800 800">
  <defs><linearGradient id="bg" x1="0" y1="0" x2="1" y2="1"><stop stop-color="#efe5dc"/><stop offset="1" stop-color="#c9a88d"/></linearGradient><linearGradient id="wood" x1="0" y1="0" x2="1" y2="1"><stop stop-color="#71452f"/><stop offset=".5" stop-color="#4f2d20"/><stop offset="1" stop-color="#2d1913"/></linearGradient></defs>
  <rect width="800" height="800" fill="url(#bg)"/><ellipse cx="405" cy="690" rx="275" ry="44" fill="#2c1710" opacity=".18"/>
  <g transform="rotate(3 400 390)"><rect x="155" y="100" width="490" height="580" rx="14" fill="url(#wood)"/><rect x="202" y="147" width="396" height="486" fill="#f9f0e6"/><rect x="224" y="169" width="352" height="442" fill="#cf978c"/><circle cx="350" cy="315" r="80" fill="#f5c8b1"/><circle cx="465" cy="325" r="76" fill="#eab89e"/><path d="M224 610V470c73-72 139-82 202-28 50 43 99 45 150-7v175z" fill="#6f4644"/><path d="M224 570c90-38 176-26 258 38h94v2H224z" fill="#40282a"/></g>
  <text x="400" y="755" text-anchor="middle" font-family="Georgia,serif" font-size="32" fill="#4a2b20">WALNUT MEMORY</text>
</svg>
